<?xml version="1.0" standalone="no"?>
<!DOCTYPE svg PUBLIC "-//W3C//DTD SVG 20010904//EN"
 "http://www.w3.org/TR/2001/REC-SVG-20010904/DTD/svg10.dtd">
<svg version="1.0" xmlns="http://www.w3.org/2000/svg"
 width="256.000000pt" height="256.000000pt" viewBox="0 0 256.000000 256.000000"
 preserveAspectRatio="xMidYMid meet">
<metadata>
Created by potrace 1.11, written by Peter Selinger 2001-2013
</metadata>
<g transform="translate(0.000000,256.000000) scale(0.100000,-0.100000)"
fill="#000000" stroke="none">
<path d="M1060 2181 c-172 -45 -292 -113 -416 -236 -132 -132 -221 -298 -250
-470 -4 -22 -8 -49 -10 -60 -5 -25 -4 -180 1 -220 5 -35 10 -60 23 -108 6 -20
7 -38 4 -41 -3 -3 0 -6 7 -6 7 0 10 -4 7 -8 -3 -5 1 -20 9 -35 8 -15 12 -27 9
-27 -4 0 47 -101 56 -110 3 -3 11 -17 19 -32 8 -16 18 -28 23 -28 4 0 8 -7 8
-15 0 -8 5 -15 10 -15 6 0 10 -7 10 -15 0 -8 4 -15 10 -15 5 0 20 -16 32 -35
13 -19 28 -35 35 -35 6 0 15 -9 18 -21 4 -11 9 -18 12 -16 2 3 13 -2 23 -11
51 -47 80 -71 80 -66 0 3 7 -2 16 -10 8 -9 20 -14 25 -11 5 4 9 -3 9 -14 0
-11 7 -24 16 -29 14 -8 14 -10 0 -21 -21 -18 -21 -45 0 -37 9 3 25 -4 40 -19
28 -28 36 -31 28 -12 -3 8 4 13 17 14 15 1 18 -1 10 -10 -7 -9 -5 -16 9 -24
15 -10 19 -9 25 5 3 9 0 21 -9 27 -13 10 -12 13 2 23 9 7 11 10 4 6 -7 -3 -23
2 -35 13 l-22 18 19 -22 c11 -13 14 -23 9 -23 -16 0 -36 28 -29 39 4 6 19 4
41 -5 19 -8 35 -11 35 -8 0 3 11 -1 25 -10 14 -9 30 -14 35 -11 11 7 32 -29
23 -39 -7 -6 10 -9 42 -7 19 2 19 1 2 -13 -26 -20 -65 -3 -62 28 2 16 -3 22
-17 22 -18 0 -18 -1 -2 -13 10 -7 15 -16 11 -19 -3 -3 -18 3 -33 15 -23 18
-24 21 -8 21 16 0 16 2 4 10 -9 6 -17 5 -21 -2 -9 -14 0 -40 11 -33 4 3 13 -2
20 -10 11 -13 9 -15 -10 -13 -13 2 -24 -3 -26 -10 -1 -7 0 -8 3 -2 10 20 24
10 17 -12 l-7 -23 19 23 c20 24 54 22 54 -3 0 -8 4 -17 10 -20 6 -4 7 1 3 11
-4 12 -3 15 6 10 6 -4 18 -3 25 3 10 9 15 8 20 -4 4 -10 -1 -15 -17 -16 -12 0
-16 -3 -9 -6 24 -10 44 5 33 25 -9 16 -6 19 19 19 19 0 26 -4 23 -14 -3 -7
-10 -10 -17 -6 -6 4 -5 0 2 -9 14 -17 42 -14 42 4 0 5 -4 6 -10 3 -11 -7 -14
8 -3 19 4 3 17 -6 29 -21 18 -22 24 -25 36 -15 8 6 19 8 23 4 5 -4 5 -1 1 6
-4 7 -12 10 -17 7 -5 -4 -9 -2 -9 4 0 22 19 20 38 -4 15 -18 21 -21 25 -11 3
7 1 18 -5 24 -6 6 -7 16 -2 25 8 13 11 13 24 -1 13 -14 12 -15 -5 -8 -15 5
-17 4 -9 -4 9 -9 17 -9 34 0 20 11 22 10 17 -3 -4 -12 -1 -14 11 -10 9 3 23
10 30 16 8 6 12 6 12 -1 0 -12 -25 -34 -31 -27 -3 2 -5 -5 -6 -15 -2 -17 1
-16 21 7 l23 27 12 -22 c10 -19 15 -20 36 -10 14 6 25 15 25 19 0 12 -26 18
-40 9 -8 -5 -18 -6 -22 -4 -10 6 -11 24 0 23 19 -3 33 2 27 11 -3 6 -1 10 4
10 6 0 11 -4 11 -8 0 -5 12 -14 27 -21 22 -10 24 -14 12 -22 -12 -9 -12 -10 1
-6 8 2 13 12 12 23 -4 17 -1 16 21 -5 26 -23 53 -21 43 4 -7 19 20 38 43 32
15 -3 18 -1 14 12 -4 13 -2 12 11 -3 14 -18 15 -17 14 5 -1 13 -8 32 -17 42
-14 16 -16 15 -43 -28 -15 -25 -33 -45 -38 -45 -16 0 -12 10 13 30 12 10 19
22 15 26 -4 4 -14 2 -22 -5 -11 -9 -15 -9 -20 1 -3 7 -4 4 -1 -8 4 -14 0 -21
-10 -21 -9 0 -14 6 -11 12 2 6 -2 12 -8 12 -8 0 -12 -10 -10 -24 1 -15 -3 -23
-12 -23 -12 0 -13 5 -4 23 10 20 10 20 -3 4 -13 -15 -16 -15 -27 -2 -10 12 -9
15 7 15 11 0 23 3 27 7 3 4 13 8 21 10 8 2 23 5 33 7 9 3 21 5 25 5 5 1 6 5 2
10 -3 6 3 8 15 6 11 -2 22 1 25 6 4 5 11 7 16 4 5 -4 9 -1 9 4 0 6 5 11 11 11
6 0 17 7 26 15 8 8 19 13 24 10 5 -4 9 -2 9 4 0 6 14 18 32 27 17 9 45 29 62
45 23 21 33 25 43 17 10 -8 12 -7 8 4 -4 9 9 28 34 51 21 19 37 38 34 41 -3 2
4 11 16 18 12 7 21 17 21 23 0 6 10 22 22 36 39 43 93 148 122 234 50 152 57
358 17 510 -80 308 -315 547 -627 641 -73 22 -113 27 -224 30 -121 3 -146 0
-240 -25z m-170 -1691 c0 -17 -13 -17 -31 1 -26 26 -24 31 6 17 14 -6 25 -14
25 -18z m16 -16 c-4 -9 0 -24 9 -34 14 -15 13 -17 -2 -17 -10 0 -26 6 -35 14
-9 8 -22 12 -27 8 -6 -3 -11 -2 -11 4 0 22 24 23 42 1 10 -12 18 -17 18 -12 0
6 -5 14 -10 17 -8 5 -7 11 1 21 15 19 23 18 15 -2z m772 -35 c3 -11 2 -11 -6
-1 -7 11 -10 11 -15 -2 -4 -9 -11 -16 -17 -16 -7 0 -7 6 0 21 12 22 31 21 38
-2z m-578 -19 c0 10 3 11 8 4 4 -6 26 -10 50 -9 24 1 45 -1 47 -5 2 -3 22 -5
44 -4 25 1 41 -3 41 -10 0 -6 5 -4 11 4 9 12 10 12 5 -4 -4 -10 -1 -26 6 -35
7 -9 1 -6 -12 5 -14 12 -31 19 -39 16 -8 -2 -11 0 -8 5 3 5 -3 9 -13 9 -10 0
-17 -3 -15 -6 2 -4 -14 -6 -36 -6 -21 0 -39 4 -39 10 0 5 -3 6 -6 3 -4 -3 -15
-2 -25 4 -14 7 -19 6 -19 -3 0 -9 -3 -9 -10 2 -5 8 -10 20 -10 25 0 6 5 3 10
-5 9 -13 10 -13 10 0z m366 -6 c-3 -9 -6 -19 -6 -22 0 -4 -5 0 -10 8 -8 12
-10 12 -10 1 0 -11 -3 -11 -17 0 -10 8 -14 9 -10 2 10 -15 -12 -28 -25 -15 -6
6 -16 8 -23 6 -7 -3 -16 0 -21 7 -5 9 -2 10 9 6 10 -4 17 -1 17 6 1 7 6 4 14
-6 12 -16 14 -16 20 -1 3 9 13 14 21 10 8 -3 17 -1 20 4 10 16 28 11 21 -6z
m-496 -14 c0 -5 -4 -10 -10 -10 -5 0 -10 5 -10 10 0 6 5 10 10 10 6 0 10 -4
10 -10z m606 -12 c3 -10 10 -16 15 -13 5 4 9 1 9 -4 0 -18 -15 -13 -38 12 -17
18 -19 24 -7 24 8 0 17 -9 21 -19z m-323 -29 c3 -13 1 -19 -6 -16 -15 5 -22
37 -9 37 5 0 12 -9 15 -21z m227 -9 c-8 -5 -17 -7 -19 -4 -3 3 1 9 9 14 8 5
17 7 19 4 3 -3 -1 -9 -9 -14z"/>
<path d="M1156 398 c3 -5 10 -6 15 -3 13 9 11 12 -6 12 -8 0 -12 -4 -9 -9z"/>
<path d="M687 559 c7 -7 15 -10 18 -7 3 3 -2 9 -12 12 -14 6 -15 5 -6 -5z"/>
<path d="M1789 543 c-13 -16 -12 -17 4 -4 16 13 21 21 13 21 -2 0 -10 -8 -17
-17z"/>
<path d="M575 540 c3 -5 8 -10 11 -10 2 0 4 5 4 10 0 6 -5 10 -11 10 -5 0 -7
-4 -4 -10z"/>
<path d="M1913 527 c0 -8 6 -14 14 -14 9 0 10 4 2 14 -6 7 -12 13 -14 13 -1 0
-2 -6 -2 -13z"/>
<path d="M740 508 c-10 -21 -10 -21 3 -6 8 10 18 14 22 10 5 -4 5 -1 1 6 -10
17 -14 15 -26 -10z"/>
<path d="M1856 522 c-3 -5 1 -9 9 -9 8 0 12 4 9 9 -3 4 -7 8 -9 8 -2 0 -6 -4
-9 -8z"/>
<path d="M1713 509 c-6 -6 -9 -18 -6 -25 3 -8 0 -14 -6 -14 -6 0 -11 5 -11 12
0 6 -3 8 -7 5 -3 -4 2 -16 11 -26 10 -11 15 -25 11 -31 -8 -12 12 -40 28 -40
6 0 2 6 -9 14 -18 14 -18 16 -2 32 10 10 21 14 25 10 4 -4 1 -11 -7 -16 -8 -5
-12 -11 -10 -14 3 -2 14 2 24 10 20 14 20 14 0 28 -10 8 -20 10 -22 5 -2 -5
-7 -9 -12 -9 -10 0 -7 40 4 58 9 15 4 16 -11 1z"/>
<path d="M1795 511 c-3 -5 -2 -12 3 -15 5 -3 9 1 9 9 0 17 -3 19 -12 6z"/>
<path d="M536 498 c3 -5 10 -6 15 -3 13 9 11 12 -6 12 -8 0 -12 -4 -9 -9z"/>
<path d="M666 501 c-4 -5 3 -7 14 -4 23 6 26 13 6 13 -8 0 -17 -4 -20 -9z"/>
<path d="M773 493 c-4 -9 -14 -25 -22 -35 -9 -10 -14 -21 -13 -25 2 -3 -2 -10
-10 -15 -10 -8 -10 -9 2 -5 8 2 15 8 15 14 0 5 8 17 18 27 9 10 17 24 17 32 0
12 4 13 22 3 22 -12 22 -12 3 -20 -19 -8 -19 -9 -1 -6 29 3 30 22 1 35 -22 10
-27 9 -32 -5z"/>
<path d="M1736 501 c-3 -5 2 -15 12 -22 15 -13 16 -12 4 3 -11 14 -10 17 10
21 22 4 22 4 1 6 -12 0 -24 -3 -27 -8z"/>
<path d="M593 485 c0 -8 3 -13 5 -10 3 3 10 0 17 -5 8 -7 12 -5 12 5 0 8 -3
13 -5 10 -3 -3 -10 0 -17 5 -8 7 -12 5 -12 -5z"/>
<path d="M1843 480 c-11 -16 -10 -18 2 -14 8 4 15 12 15 20 0 19 -3 18 -17 -6z"/>
<path d="M1929 483 c-13 -16 -12 -17 4 -4 16 13 21 21 13 21 -2 0 -10 -8 -17
-17z"/>
<path d="M1770 476 c0 -8 4 -17 9 -21 6 -3 9 4 8 15 -1 23 -17 28 -17 6z"/>
<path d="M474 462 c4 -3 14 -7 22 -8 9 -1 13 0 10 4 -4 3 -14 7 -22 8 -9 1
-13 0 -10 -4z"/>
<path d="M550 466 c0 -2 7 -7 16 -10 8 -3 12 -2 9 4 -6 10 -25 14 -25 6z"/>
<path d="M690 460 c-9 -6 -10 -10 -3 -10 6 0 15 5 18 10 8 12 4 12 -15 0z"/>
<path d="M1874 455 c3 -23 12 -26 13 -5 1 11 -2 20 -7 20 -4 0 -7 -7 -6 -15z"/>
<path d="M1945 460 c-3 -6 1 -7 9 -4 18 7 21 14 7 14 -6 0 -13 -4 -16 -10z"/>
<path d="M715 449 c-4 -6 -5 -12 -2 -15 2 -3 7 2 10 11 7 17 1 20 -8 4z"/>
<path d="M660 441 c0 -5 9 -12 19 -16 12 -4 18 -12 14 -21 -3 -7 -3 -14 0 -14
3 0 7 6 10 14 3 9 -4 21 -19 30 -13 9 -24 12 -24 7z"/>
<path d="M780 442 c0 -4 9 -8 20 -9 11 -1 20 2 20 5 0 4 -9 8 -20 9 -11 1 -20
-2 -20 -5z"/>
<path d="M1826 436 c10 -8 21 -12 24 -10 5 6 -21 24 -34 24 -6 0 -1 -6 10 -14z"/>
<path d="M1956 442 c-3 -5 1 -9 9 -9 8 0 12 4 9 9 -3 4 -7 8 -9 8 -2 0 -6 -4
-9 -8z"/>
<path d="M1788 433 c6 -2 10 -9 7 -14 -4 -5 2 -6 11 -2 13 5 15 3 9 -7 -6 -9
-4 -11 5 -5 10 6 9 11 -5 22 -11 7 -24 13 -29 12 -6 0 -5 -3 2 -6z"/>
<path d="M2015 420 c3 -5 8 -10 11 -10 2 0 4 5 4 10 0 6 -5 10 -11 10 -5 0 -7
-4 -4 -10z"/>
<path d="M820 400 c6 -11 16 -20 23 -19 9 0 9 2 0 6 -7 2 -13 11 -13 19 0 8
-5 14 -10 14 -7 0 -7 -6 0 -20z"/>
<path d="M845 411 c-4 -7 0 -8 10 -5 9 4 15 3 14 -2 -4 -21 2 -35 11 -29 6 3
10 -3 10 -14 0 -11 4 -22 9 -25 16 -10 -1 38 -18 52 -9 7 -15 16 -13 20 6 11
-16 14 -23 3z"/>
<path d="M1770 411 c0 -10 19 -25 25 -20 1 2 -3 10 -11 17 -8 7 -14 8 -14 3z"/>
<path d="M1875 410 c-3 -6 1 -7 9 -4 18 7 21 14 7 14 -6 0 -13 -4 -16 -10z"/>
<path d="M1930 416 c0 -2 8 -10 18 -17 15 -13 16 -12 3 4 -13 16 -21 21 -21
13z"/>
<path d="M630 400 c0 -5 5 -10 10 -10 6 0 10 5 10 10 0 6 -4 10 -10 10 -5 0
-10 -4 -10 -10z"/>
<path d="M742 402 c-8 -6 -2 -9 18 -9 20 0 26 3 18 9 -7 4 -15 8 -18 8 -3 0
-11 -4 -18 -8z"/>
<path d="M1750 405 c0 -5 5 -17 10 -25 5 -8 10 -10 10 -5 0 6 -5 17 -10 25 -5
8 -10 11 -10 5z"/>
<path d="M707 387 c-3 -8 1 -14 8 -14 7 0 11 6 8 14 -3 7 -6 13 -8 13 -2 0 -5
-6 -8 -13z"/>
<path d="M796 383 c-9 -22 5 -35 24 -22 12 9 12 10 -3 5 -15 -5 -17 -2 -12 14
8 24 0 27 -9 3z"/>
<path d="M1625 389 c-11 -16 -1 -19 13 -3 7 8 8 14 3 14 -5 0 -13 -5 -16 -11z"/>
<path d="M1830 390 c0 -5 5 -10 11 -10 5 0 7 5 4 10 -3 6 -8 10 -11 10 -2 0
-4 -4 -4 -10z"/>
<path d="M1916 387 c3 -10 9 -15 12 -12 3 3 0 11 -7 18 -10 9 -11 8 -5 -6z"/>
<path d="M666 382 c-3 -5 1 -9 9 -9 8 0 12 4 9 9 -3 4 -7 8 -9 8 -2 0 -6 -4
-9 -8z"/>
<path d="M1660 381 c0 -10 39 -11 45 -2 2 5 -7 9 -20 9 -14 0 -25 -3 -25 -7z"/>
<path d="M1868 383 c6 -2 9 -10 6 -15 -4 -7 -2 -8 5 -4 13 9 5 26 -12 25 -9 0
-8 -2 1 -6z"/>
<path d="M756 365 c4 -8 8 -15 10 -15 2 0 4 7 4 15 0 8 -4 15 -10 15 -5 0 -7
-7 -4 -15z"/>
<path d="M920 373 c8 -3 25 -14 36 -25 17 -15 23 -17 30 -6 4 7 4 10 0 6 -5
-4 -17 2 -29 13 -11 10 -28 19 -36 18 -14 0 -14 -1 -1 -6z"/>
<path d="M1637 365 c-4 -8 -3 -16 1 -19 4 -3 9 4 9 15 2 23 -3 25 -10 4z"/>
<path d="M1725 370 c-16 -7 -17 -9 -3 -9 9 -1 20 4 23 9 7 11 7 11 -20 0z"/>
<path d="M1776 353 c-4 -11 -1 -11 14 -3 24 13 25 17 5 17 -8 0 -16 -6 -19
-14z"/>
<path d="M1850 361 c0 -6 4 -13 10 -16 6 -3 7 1 4 9 -7 18 -14 21 -14 7z"/>
<path d="M1896 353 c-6 -14 -5 -15 5 -6 7 7 10 15 7 18 -3 3 -9 -2 -12 -12z"/>
<path d="M613 345 c0 -8 4 -12 9 -9 5 3 6 10 3 15 -9 13 -12 11 -12 -6z"/>
<path d="M716 352 c-2 -4 4 -8 14 -8 10 0 16 4 14 8 -3 4 -9 8 -14 8 -5 0 -11
-4 -14 -8z"/>
<path d="M921 348 c9 -7 14 -19 12 -25 -3 -7 0 -13 5 -13 17 0 7 32 -14 42
-17 8 -17 8 -3 -4z"/>
<path d="M1030 352 c0 -5 7 -9 15 -9 8 0 12 4 9 9 -3 4 -9 8 -15 8 -5 0 -9 -4
-9 -8z"/>
<path d="M1348 353 c6 -2 10 -9 7 -14 -4 -5 1 -6 10 -2 13 5 14 7 3 14 -7 5
-17 8 -23 8 -5 0 -4 -3 3 -6z"/>
<path d="M1660 356 c0 -2 7 -7 16 -10 8 -3 12 -2 9 4 -6 10 -25 14 -25 6z"/>
<path d="M680 340 c-9 -6 -10 -10 -3 -10 6 0 15 5 18 10 8 12 4 12 -15 0z"/>
<path d="M1430 341 c0 -6 4 -13 10 -16 6 -3 7 1 4 9 -7 18 -14 21 -14 7z"/>
<path d="M1550 340 c0 -5 5 -10 10 -10 6 0 10 5 10 10 0 6 -4 10 -10 10 -5 0
-10 -4 -10 -10z"/>
<path d="M1614 342 c3 -5 1 -12 -6 -14 -8 -3 -9 -6 -1 -11 6 -4 13 0 17 8 3 8
0 17 -6 21 -6 4 -8 3 -4 -4z"/>
<path d="M1799 333 c-13 -16 -12 -17 4 -4 16 13 21 21 13 21 -2 0 -10 -8 -17
-17z"/>
<path d="M1331 324 c0 -11 3 -14 6 -6 3 7 2 16 -1 19 -3 4 -6 -2 -5 -13z"/>
<path d="M726 318 c3 -5 10 -6 15 -3 13 9 11 12 -6 12 -8 0 -12 -4 -9 -9z"/>
<path d="M996 321 c9 -9 34 -9 34 -1 0 5 -9 8 -20 7 -10 -1 -17 -3 -14 -6z"/>
<path d="M1046 322 c-3 -5 1 -9 9 -9 8 0 15 4 15 9 0 4 -4 8 -9 8 -6 0 -12 -4
-15 -8z"/>
<path d="M1142 322 c-8 -6 -2 -9 18 -9 20 0 26 3 18 9 -7 4 -15 8 -18 8 -3 0
-11 -4 -18 -8z"/>
<path d="M1278 323 c7 -3 16 -2 19 1 4 3 -2 6 -13 5 -11 0 -14 -3 -6 -6z"/>
<path d="M1361 316 c-9 -11 -9 -16 1 -22 7 -4 10 -4 6 1 -4 4 -3 14 3 22 6 7
9 13 6 13 -2 0 -10 -6 -16 -14z"/>
<path d="M1410 321 c0 -6 4 -13 10 -16 6 -3 7 1 4 9 -7 18 -14 21 -14 7z"/>
<path d="M1475 320 c-3 -5 -1 -10 4 -10 6 0 11 5 11 10 0 6 -2 10 -4 10 -3 0
-8 -4 -11 -10z"/>
<path d="M1635 321 c-3 -5 -2 -12 3 -15 5 -3 9 1 9 9 0 17 -3 19 -12 6z"/>
<path d="M1691 327 c2 -1 13 -9 24 -17 19 -14 19 -14 6 3 -7 9 -18 17 -24 17
-6 0 -8 -1 -6 -3z"/>
<path d="M1836 318 c3 -5 10 -6 15 -3 13 9 11 12 -6 12 -8 0 -12 -4 -9 -9z"/>
<path d="M1950 326 c0 -2 7 -7 16 -10 8 -3 12 -2 9 4 -6 10 -25 14 -25 6z"/>
<path d="M695 311 c-3 -5 -2 -12 3 -15 5 -3 9 1 9 9 0 17 -3 19 -12 6z"/>
<path d="M989 297 c6 -8 7 -18 3 -22 -4 -5 -1 -5 6 -1 10 6 10 11 1 22 -6 8
-14 14 -16 14 -3 0 0 -6 6 -13z"/>
<path d="M1228 303 c6 -2 18 -2 25 0 6 3 1 5 -13 5 -14 0 -19 -2 -12 -5z"/>
<path d="M1270 306 c0 -2 7 -7 16 -10 8 -3 12 -2 9 4 -6 10 -25 14 -25 6z"/>
<path d="M1515 290 c10 -11 20 -20 23 -20 3 0 -3 9 -13 20 -10 11 -20 20 -23
20 -3 0 3 -9 13 -20z"/>
<path d="M1665 300 c-3 -6 1 -7 9 -4 18 7 21 14 7 14 -6 0 -13 -4 -16 -10z"/>
<path d="M1770 299 c0 -5 5 -7 10 -4 6 3 10 8 10 11 0 2 -4 4 -10 4 -5 0 -10
-5 -10 -11z"/>
<path d="M1810 299 c0 -5 5 -7 10 -4 6 3 10 8 10 11 0 2 -4 4 -10 4 -5 0 -10
-5 -10 -11z"/>
<path d="M629 283 c-13 -16 -12 -17 4 -4 16 13 21 21 13 21 -2 0 -10 -8 -17
-17z"/>
<path d="M876 273 c-6 -14 -5 -15 5 -6 7 7 10 15 7 18 -3 3 -9 -2 -12 -12z"/>
<path d="M1370 266 c0 -2 7 -7 16 -10 8 -3 12 -2 9 4 -6 10 -25 14 -25 6z"/>
</g>
</svg>
